<mxfile host="app.diagrams.net" modified="2021-08-17T09:36:33.137Z" agent="5.0 (Macintosh; Intel Mac OS X 10_15_7) AppleWebKit/605.1.15 (KHTML, like Gecko) Version/14.1.2 Safari/605.1.15" etag="u8FG8OmgVi7P4M3dXTZP" version="14.9.7" type="gitlab">
  <diagram id="kgpKYQtTHZ0yAKxKKP6v" name="Page-1">
    <mxGraphModel dx="946" dy="589" grid="1" gridSize="10" guides="1" tooltips="1" connect="1" arrows="1" fold="1" page="1" pageScale="1" pageWidth="850" pageHeight="1100" math="0" shadow="0">
      <root>
        <mxCell id="0" />
        <mxCell id="1" parent="0" />
        <mxCell id="IH8AMjFmh0_7jAbo7YRf-1" value="module application" style="shape=umlLifeline;perimeter=lifelinePerimeter;whiteSpace=wrap;html=1;container=1;collapsible=0;recursiveResize=0;outlineConnect=0;" vertex="1" parent="1">
          <mxGeometry x="180" y="40" width="100" height="280" as="geometry" />
        </mxCell>
        <mxCell id="IH8AMjFmh0_7jAbo7YRf-3" value="portal application" style="shape=umlLifeline;perimeter=lifelinePerimeter;whiteSpace=wrap;html=1;container=1;collapsible=0;recursiveResize=0;outlineConnect=0;" vertex="1" parent="1">
          <mxGeometry x="40" y="40" width="100" height="280" as="geometry" />
        </mxCell>
        <mxCell id="IH8AMjFmh0_7jAbo7YRf-5" value="" style="html=1;points=[];perimeter=orthogonalPerimeter;" vertex="1" parent="1">
          <mxGeometry x="85" y="140" width="10" height="80" as="geometry" />
        </mxCell>
        <mxCell id="IH8AMjFmh0_7jAbo7YRf-6" value="create JWT" style="edgeStyle=orthogonalEdgeStyle;html=1;align=left;spacingLeft=2;endArrow=block;rounded=0;entryX=1;entryY=0;" edge="1" target="IH8AMjFmh0_7jAbo7YRf-5" parent="1">
          <mxGeometry relative="1" as="geometry">
            <mxPoint x="90" y="120" as="sourcePoint" />
            <Array as="points">
              <mxPoint x="120" y="120" />
            </Array>
          </mxGeometry>
        </mxCell>
        <mxCell id="IH8AMjFmh0_7jAbo7YRf-7" value="" style="html=1;points=[];perimeter=orthogonalPerimeter;" vertex="1" parent="1">
          <mxGeometry x="225" y="190" width="10" height="80" as="geometry" />
        </mxCell>
        <mxCell id="IH8AMjFmh0_7jAbo7YRf-8" value="launch" style="html=1;verticalAlign=bottom;startArrow=oval;endArrow=block;startSize=8;" edge="1" target="IH8AMjFmh0_7jAbo7YRf-7" parent="1">
          <mxGeometry relative="1" as="geometry">
            <mxPoint x="95" y="190" as="sourcePoint" />
          </mxGeometry>
        </mxCell>
        <mxCell id="IH8AMjFmh0_7jAbo7YRf-10" value="" style="html=1;points=[];perimeter=orthogonalPerimeter;" vertex="1" parent="1">
          <mxGeometry x="230" y="220" width="10" height="40" as="geometry" />
        </mxCell>
        <mxCell id="IH8AMjFmh0_7jAbo7YRf-11" value="validate JWT" style="edgeStyle=orthogonalEdgeStyle;html=1;align=left;spacingLeft=2;endArrow=block;rounded=0;entryX=1;entryY=0;" edge="1" target="IH8AMjFmh0_7jAbo7YRf-10" parent="1">
          <mxGeometry relative="1" as="geometry">
            <mxPoint x="235" y="200" as="sourcePoint" />
            <Array as="points">
              <mxPoint x="265" y="200" />
            </Array>
          </mxGeometry>
        </mxCell>
      </root>
    </mxGraphModel>
  </diagram>
</mxfile>
